# xmcd
#
# Track frame offsets:
#	150
#	12131
#	23643
#	42709
#	58795
#	71058
#	80705
#	99052
#	115746
#	127491
#	153158
#	167336
#
# Disc length: 2377 seconds
# Revision: 0
# Processed by: cddbd v1.5.2PL0 Copyright (c) Steve Scherf et al.
# Submitted via: dBpowerAMP V12.0
#
DISCID=9709470c
DTITLE=Andres Roots and Raul Terep - Trad.Alt.Blues
DYEAR=2014
DGENRE=Blues
TTITLE0=Chicken Man
TTITLE1=Django
TTITLE2=Bullfrog Medley
TTITLE3=Moby Duck
TTITLE4=Greengrass Stomp
TTITLE5=Wagon Swing
TTITLE6=Parnu Hambone
TTITLE7=Build Me A Statue
TTITLE8=Django
TTITLE9=Legacy Blues
TTITLE10=Funky Rooster
TTITLE11=Tartu Hambone
EXTD=
EXTT0=
EXTT1=
EXTT2=
EXTT3=
EXTT4=
EXTT5=
EXTT6=
EXTT7=
EXTT8=
EXTT9=
EXTT10=
EXTT11=
PLAYORDER=
